<?xml version="1.0" encoding="UTF-8"?>
<!DOCTYPE svg PUBLIC "-//W3C//DTD SVG 1.1//EN" "http://www.w3.org/Graphics/SVG/1.1/DTD/svg11.dtd">
<!-- Creator: CorelDRAW 2019 (64-Bit Evaluation Version) -->
<svg xmlns="http://www.w3.org/2000/svg" xml:space="preserve" width="1.60763in" height="1.86373in" version="1.1" style="shape-rendering:geometricPrecision; text-rendering:geometricPrecision; image-rendering:optimizeQuality; fill-rule:evenodd; clip-rule:evenodd"
viewBox="0 0 267.28 309.86"
 xmlns:xlink="http://www.w3.org/1999/xlink">
 <defs>
  <style type="text/css">
   <![CDATA[
    .str0 {stroke:#A09F89;stroke-width:1.15;stroke-miterlimit:2.61313}
    .str1 {stroke:black;stroke-width:1.15;stroke-miterlimit:2.61313}
    .str2 {stroke:black;stroke-width:0.5;stroke-miterlimit:2.61313}
    .fil5 {fill:black}
    .fil9 {fill:#332C0B}
    .fil12 {fill:#514B2F}
    .fil11 {fill:#655C27}
    .fil10 {fill:#73672E}
    .fil2 {fill:#D2B62F}
    .fil6 {fill:#D3B730}
    .fil3 {fill:#D3B831}
    .fil7 {fill:lightgrey}
    .fil8 {fill:#FCD73C}
    .fil4 {fill:#FDD83C}
    .fil1 {fill:#FDDC3F}
    .fil0 {fill:white}
   ]]>
  </style>
 </defs>
 <g id="Layer_x0020_1">
  <metadata id="CorelCorpID_0Corel-Layer"/>
  <rect class="fil0 str0" x="0.58" y="0.58" width="265.55" height="290.95"/>
  <rect class="fil1 str0" x="0.58" y="291.52" width="266.12" height="17.75"/>
  <path class="fil2" d="M54.72 84.09c0.2,0.47 0.41,4.05 0.48,4.88 0.15,1.65 0.31,3.29 0.45,4.96 0.28,3.29 0.69,6.67 0.9,9.98l-0 0.09c0.71,0.19 3.84,0.08 4.88,0.08 24.37,0 48.74,0 73.11,0 0,-1.66 0.1,-3.59 0.06,-5.35 -0.02,-0.82 0,-0.63 0.17,-0.73l65.31 0.02c0.01,0.02 0.01,0.05 0.01,0.06 0,0.02 0.01,0.04 0.01,0.06 0.05,0.33 -0.03,0.76 -0.06,1.17l-0.23 2.57c-0.05,0.41 -0.1,0.86 -0.12,1.25 -0.09,1.69 -0.35,3.42 -0.45,5.16 -0.04,0.76 -0.15,1.77 -0.23,2.57l-0.69 7.66 -1.05 11.73c-0.04,1.2 -0.34,3.5 -0.42,4.81l-0.57 6.86c-0.04,0.42 -0.15,1.02 -0.16,1.45 -0.06,1.62 -0.43,4.98 -0.59,6.83l-1.12 12.3c-0.08,1.48 -0.36,3.57 -0.4,4.79 -0.04,1.07 -0.35,3.45 -0.42,4.66 -0.09,1.49 -0.22,3.19 -0.4,4.68 -0.18,1.56 -0.25,3.2 -0.43,4.73 -0.09,0.81 -0.16,1.57 -0.21,2.38 -0.04,0.73 -0.19,1.58 -0.21,2.38 -0.05,1.49 -0.32,3.15 -0.42,4.66 -0.1,1.51 -0.23,3.13 -0.4,4.69l-0.64 7.11c-0.03,0.75 -0.18,1.59 -0.21,2.37 -0.06,1.5 -0.32,3.11 -0.41,4.66 -0.2,3.13 -0.59,6.27 -0.83,9.42 -0.24,3.13 -0.59,6.27 -0.84,9.41 -0.17,2.21 -0.59,5.66 -0.69,7.75 -0.01,0.22 -0.06,0.3 -0.07,0.55l-0.08 1.07 -2.55 0.69c-0.23,0.08 -0.04,-0.01 -0.17,0.08l-0.15 0.13c-0.14,0.12 -1.23,0.39 -1.42,0.44 -0.51,0.14 -1.06,0.29 -1.55,0.42l-21.72 5.97c-4.18,1.14 -8.23,2.33 -12.39,3.39 -2.04,0.52 -4.09,1.17 -6.16,1.69l-6.25 1.72c-0.18,-0.16 -0.06,0.05 -0.1,-0.26 -0.23,0.16 -0.27,0.12 -0.49,0.23l-0.14 0.04 -0.11 -0.46c-14.66,0 -29.32,0 -43.98,0 -0.59,0 -2.51,-0.13 -2.9,0.09 0.74,0.13 13.16,3.68 14.03,3.94 4.66,1.38 9.39,2.67 14.02,3.95 4.69,1.3 9.3,2.63 13.98,3.95 1.2,0.34 2.31,0.64 3.52,0.99 1.7,0.49 1.3,0.37 3.53,-0.26l35.02 -9.88c0.17,-0.05 27.87,-7.8 28.02,-7.94 0.22,-0.38 0.42,-3.94 0.49,-4.7l3.05 -33.79c2.22,-25.64 4.72,-51.35 6.95,-76.99l2.6 -28.9c0.3,-3.22 0.66,-6.54 0.87,-9.73 -0.36,0.24 -0.63,0.15 -1.08,0.15l-7.16 0c-1.89,0 -5.87,0.08 -7.7,0.01 -0.09,-0 -0.14,-0.01 -0.23,-0.02 -0.23,-0.04 -0.23,-0.05 -0.25,-0.13 -0.01,-0.02 -0.02,-0.05 -0.02,-0.07 -0.01,-0.03 -0.01,-0.05 -0.02,-0.08l-0.02 -4.2c-1.83,0 -3.66,-0.01 -5.49,0 -0.55,0 -0.77,-0.08 -1.29,-0.08 -0.46,0 -0.92,0 -1.38,0 -2.83,0 -2.83,0.22 -2.82,-0.69 0,-0.18 0,-0.36 0,-0.53l0 -3.28 28.28 0 0 -0.15 -159.83 0 0 0.53z"/>
  <path class="fil3" d="M56.55 103.92l8.93 98.41c-0.03,-0.4 -0.24,-0.18 0.9,-0.17l15.17 0c0,0.49 -0.15,3.43 0.2,3.85l-0.04 -12.06 4.39 1.21c0.59,0.18 4.14,1.2 4.5,1.22 0.42,-0.03 6.77,1.75 8.03,2.11l1.98 0.52c0.36,0.09 0.45,0.08 0.61,0.26 0.41,-0.05 3.44,0.88 4.29,1.11 0.34,0.09 1.1,0.18 1.32,0.45 0.55,0.26 5.04,1.41 5.73,1.48l0.18 -83.59 0.06 -0.15c0.26,-0.22 5.02,-0.1 5.34,-0.1l16.46 0c0,-0.34 -0.06,-1.16 0.08,-1.37 -0.18,0.48 -0.08,15.04 -0.08,16.84l0 114.1c0,1.25 -0.11,3.17 0.04,4.34l0.14 -0.04 -0.01 -154.34c-0.16,0.09 -0.19,-0.1 -0.17,0.73 0.04,1.76 -0.06,3.69 -0.06,5.35 -24.37,0 -48.74,0 -73.11,0 -1.04,0 -4.17,0.11 -4.88,-0.08l0 -0.09z"/>
  <path class="fil4" d="M134.77 252.35c0.22,-0.12 0.26,-0.08 0.49,-0.23 0.79,-0.06 2.21,-0.58 3.08,-0.79 3,-0.73 6.18,-1.73 9.28,-2.51 4.17,-1.06 8.31,-2.29 12.42,-3.37 7.71,-2.01 15.61,-4.2 23.27,-6.3 0.47,-0.13 1.06,-0.34 1.55,-0.41l0.15 -0.13c0.14,-0.08 -0.05,0 0.17,-0.08l2.55 -0.69 0.08 -1.07c0.01,-0.25 0.06,-0.33 0.07,-0.55 0.1,-2.09 0.52,-5.54 0.69,-7.75 0.24,-3.14 0.6,-6.28 0.84,-9.41 0.24,-3.15 0.63,-6.29 0.83,-9.42 0.1,-1.55 0.36,-3.16 0.41,-4.66 0.03,-0.78 0.18,-1.62 0.21,-2.37l0.64 -7.11c0.17,-1.56 0.3,-3.18 0.4,-4.69 0.1,-1.51 0.36,-3.17 0.42,-4.66 0.03,-0.8 0.17,-1.64 0.21,-2.38 0.05,-0.81 0.12,-1.57 0.21,-2.38 0.17,-1.53 0.24,-3.17 0.43,-4.73 0.17,-1.48 0.31,-3.19 0.4,-4.68 0.07,-1.22 0.38,-3.59 0.42,-4.66 0.04,-1.22 0.32,-3.32 0.4,-4.79l-0.05 -0.6 -4.64 -0c-1.42,-0.01 -0.67,-0.03 -0.91,0.61l-0.09 0.15 -4.27 51.8 -43.07 11.21 -0.31 -18.97c1.43,-0.28 6.09,-1.6 7.8,-2.06 3.08,-0.83 23.17,-6.07 23.32,-6.25 0.13,-0.3 0.48,-13.93 0.47,-15.4l-30.91 5.28 -0.69 -69.45 46.75 -0.23c0.11,-0.12 0.03,-0.16 0.61,-0.15 0.23,0 0.46,0.01 0.69,0.01l2.59 -0c0.5,-0 0.78,0.08 1.29,0.08 1.78,-0.01 3.56,-0 5.34,-0l0.69 -7.66c0.08,-0.8 0.19,-1.81 0.23,-2.57 0.1,-1.74 0.36,-3.47 0.45,-5.16 0.02,-0.39 0.07,-0.84 0.12,-1.25l0.23 -2.57c0.02,-0.41 0.11,-0.85 0.06,-1.17 -0,-0.02 -0.01,-0.05 -0.01,-0.06 -0,-0.02 -0.01,-0.04 -0.01,-0.06l-65.31 -0.02 0.01 154.34z"/>
  <path class="fil5" d="M188.69 162.68l0.03 -0.48 -31.77 3.53c-0.09,-1.19 -0.02,-6.12 -0.02,-7.7l-0 -19.36c-0.01,-1.16 -0.47,-0.87 2.96,-0.88 10.32,-0.02 20.61,-0.09 30.93,-0.11l1.39 -19.06 -4.42 0.01 -46.75 0.23 0.69 69.45 30.91 -5.28c0.01,1.47 -0.34,15.1 -0.47,15.4 -0.15,0.18 -20.23,5.42 -23.32,6.25 -1.72,0.46 -6.37,1.78 -7.8,2.06l0.31 18.97 43.07 -11.21 4.27 -51.8z"/>
  <path class="fil6" d="M112.8 118.58l15.7 -0.01c0.21,0.06 0.08,-0.06 0.15,0.14l-0.02 106.98 -46.86 -12.64 -0.02 -7.04c-0.35,-0.42 -0.2,-3.36 -0.2,-3.85l-15.17 0c-1.13,-0.01 -0.93,-0.23 -0.9,0.17l4.06 44.54 18.1 5.16c0.39,-0.23 2.31,-0.09 2.9,-0.09 14.66,0 29.32,0 43.98,0l0.11 0.46c-0.15,-1.17 -0.04,-3.09 -0.04,-4.34l0 -114.1c0,-1.8 -0.11,-16.37 0.08,-16.84 -0.13,0.21 -0.08,1.03 -0.08,1.37l-16.46 0c-0.32,0 -5.08,-0.12 -5.34,0.1z"/>
  <path class="fil7" d="M106.83 200.83c-0.67,-0.11 -3.33,-0.86 -4.3,-1.13 -0.25,-0.07 -0.48,-0.12 -0.72,-0.19l-0.6 -0.24c-0.43,0.02 -10.31,-2.72 -10.62,-2.89 -0.36,-0.02 -3.91,-1.03 -4.5,-1.22l-4.39 -1.21 0.04 12.06 0.02 7.04 46.86 12.64 0.02 -106.98 -15.91 0.02 -0.18 83.59c-0.7,-0.08 -5.19,-1.23 -5.73,-1.48z"/>
  <path class="fil8" d="M187.79 118.62l4.42 -0.01 -1.39 19.06c-10.32,0.03 -20.61,0.09 -30.93,0.11 -3.43,0.01 -2.97,-0.28 -2.96,0.88l0 19.36c0,1.58 -0.08,6.51 0.02,7.7l31.77 -3.53 -0.03 0.48 0.09 -0.15c0.24,-0.64 -0.51,-0.62 0.91,-0.61l4.64 0 0.05 0.6 1.12 -12.3c0.16,-1.85 0.53,-5.22 0.59,-6.83 0.02,-0.43 0.13,-1.03 0.16,-1.45l0.57 -6.86c0.08,-1.3 0.38,-3.61 0.42,-4.81l1.05 -11.73c-1.78,0 -3.56,-0.01 -5.34,0 -0.51,0 -0.79,-0.08 -1.29,-0.08l-2.59 0c-0.23,0 -0.46,-0.01 -0.69,-0.01 -0.58,-0 -0.5,0.03 -0.61,0.15z"/>
  <path class="fil6" d="M213.72 92.64c0.21,-1.23 0.27,-2.96 0.39,-4.26 0.07,-0.74 0.26,-3.95 0.44,-4.37l0 -0.29 -28.28 0 0 3.28c-0,0.18 -0,0.36 -0,0.53 -0,0.91 -0,0.69 2.82,0.69 0.46,0 0.92,0 1.38,-0 0.52,-0 0.74,0.08 1.29,0.08 1.83,-0.01 3.66,-0 5.49,-0l0.02 4.2c0.01,0.03 0.01,0.05 0.02,0.08 0.01,0.03 0.02,0.05 0.02,0.07 0.02,0.08 0.01,0.1 0.25,0.13 0.09,0.01 0.14,0.02 0.23,0.02 1.83,0.07 5.81,-0.01 7.7,-0.01l7.16 0c0.45,0 0.72,0.09 1.08,-0.15z"/>
  <path class="fil9" d="M135.26 252.11c0.04,0.3 -0.08,0.1 0.1,0.26l6.25 -1.72c2.07,-0.53 4.12,-1.17 6.16,-1.69 4.16,-1.06 8.21,-2.25 12.39,-3.39l21.72 -5.97c0.49,-0.13 1.04,-0.28 1.55,-0.42 0.19,-0.05 1.29,-0.32 1.42,-0.44 -0.49,0.07 -1.08,0.28 -1.55,0.41 -7.66,2.09 -15.57,4.28 -23.27,6.3 -4.11,1.07 -8.25,2.31 -12.42,3.37 -3.1,0.78 -6.28,1.78 -9.28,2.51 -0.87,0.21 -2.29,0.74 -3.08,0.79z"/>
  <path class="fil10" d="M112.74 118.73l15.91 -0.02c-0.08,-0.2 0.06,-0.08 -0.15,-0.14l-15.7 0.01 -0.06 0.15z"/>
  <path class="fil11" d="M101.22 199.27c-0.16,-0.18 -0.26,-0.17 -0.61,-0.26l-1.98 -0.52c-1.25,-0.36 -7.61,-2.14 -8.03,-2.11 0.31,0.18 10.19,2.92 10.62,2.89z"/>
  <path class="fil12" d="M106.83 200.83c-0.22,-0.27 -0.98,-0.36 -1.32,-0.45 -0.85,-0.22 -3.88,-1.15 -4.29,-1.11l0.6 0.24c0.24,0.07 0.47,0.13 0.72,0.19 0.97,0.26 3.63,1.02 4.3,1.13z"/>
  <polygon class="fil5 str1" points="136.32,64.09 148.3,64.09 135.31,49.95 135.31,44.27 158.83,44.27 158.83,48.36 145.7,48.36 159.27,63.22 159.27,68.78 136.32,68.78 "/>
  <polygon class="fil5 str2" points="102.55,64.09 102.64,68.78 128.02,68.91 128.02,44.27 119.34,44.27 119.28,63.98 "/>
 </g>
</svg>
